<svg xmlns="http://www.w3.org/2000/svg" style="display:none" aria-hidden="true">

  <!-- ════════ Transport controls ════════ -->

  <symbol id="icon-play" viewBox="0 0 24 24">
    <path d="M7 4.5v15l13-7.5z" fill="currentColor"/>
  </symbol>

  <symbol id="icon-pause" viewBox="0 0 24 24">
    <rect x="6" y="4.5" width="4.2" height="15" rx="1.2" fill="currentColor"/>
    <rect x="13.8" y="4.5" width="4.2" height="15" rx="1.2" fill="currentColor"/>
  </symbol>

  <symbol id="icon-prev" viewBox="0 0 24 24">
    <rect x="5" y="4.5" width="2.2" height="15" rx="1" fill="currentColor"/>
    <path d="M19 5v14L8.2 12z" fill="currentColor"/>
  </symbol>

  <symbol id="icon-next" viewBox="0 0 24 24">
    <rect x="16.8" y="4.5" width="2.2" height="15" rx="1" fill="currentColor"/>
    <path d="M5 5v14l10.8-7z" fill="currentColor"/>
  </symbol>

  <symbol id="icon-shuffle" viewBox="0 0 24 24">
    <path d="M3 6h3.2c1.5 0 2.9.8 3.7 2.1l4.2 7.1c.8 1.3 2.2 2.1 3.7 2.1H21"
          fill="none" stroke="currentColor" stroke-width="1.7" stroke-linecap="round" stroke-linejoin="round"/>
    <path d="M3 18h3.2c1.5 0 2.9-.8 3.7-2.1l.7-1.2" fill="none" stroke="currentColor"
          stroke-width="1.7" stroke-linecap="round" stroke-linejoin="round"/>
    <path d="M14.5 6h3.7c1.5 0 2.9.8 3.7 2.1" fill="none" stroke="currentColor"
          stroke-width="1.7" stroke-linecap="round" stroke-linejoin="round"/>
    <path d="M18.5 3.3 21.3 6l-2.8 2.7" fill="none" stroke="currentColor"
          stroke-width="1.7" stroke-linecap="round" stroke-linejoin="round"/>
    <path d="M18.5 14.7 21.3 17.4l-2.8 2.7" fill="none" stroke="currentColor"
          stroke-width="1.7" stroke-linecap="round" stroke-linejoin="round"/>
  </symbol>

  <symbol id="icon-repeat" viewBox="0 0 24 24">
    <path d="M5 8h11a3 3 0 0 1 3 3v1" fill="none" stroke="currentColor"
          stroke-width="1.7" stroke-linecap="round" stroke-linejoin="round"/>
    <path d="M7.5 5.3 5 8l2.5 2.7" fill="none" stroke="currentColor"
          stroke-width="1.7" stroke-linecap="round" stroke-linejoin="round"/>
    <path d="M19 16H8a3 3 0 0 1-3-3v-1" fill="none" stroke="currentColor"
          stroke-width="1.7" stroke-linecap="round" stroke-linejoin="round"/>
    <path d="M16.5 18.7 19 16l-2.5-2.7" fill="none" stroke="currentColor"
          stroke-width="1.7" stroke-linecap="round" stroke-linejoin="round"/>
  </symbol>

  <symbol id="icon-repeat-one" viewBox="0 0 24 24">
    <path d="M5 8h9a3 3 0 0 1 3 3v1" fill="none" stroke="currentColor"
          stroke-width="1.7" stroke-linecap="round" stroke-linejoin="round"/>
    <path d="M7.5 5.3 5 8l2.5 2.7" fill="none" stroke="currentColor"
          stroke-width="1.7" stroke-linecap="round" stroke-linejoin="round"/>
    <path d="M19 16H10a3 3 0 0 1-3-3v-1" fill="none" stroke="currentColor"
          stroke-width="1.7" stroke-linecap="round" stroke-linejoin="round"/>
    <path d="M16.5 18.7 19 16l-2.5-2.7" fill="none" stroke="currentColor"
          stroke-width="1.7" stroke-linecap="round" stroke-linejoin="round"/>
    <path d="M10.6 9.3h.9v3.2M10.4 9.3l.9-.6" fill="none" stroke="currentColor"
          stroke-width="1.5" stroke-linecap="round" stroke-linejoin="round"/>
  </symbol>

  <!-- ════════ Radio / broadcast ════════ -->

  <symbol id="icon-radio" viewBox="0 0 24 24">
    <rect x="3.5" y="9.5" width="17" height="10.5" rx="1.8" fill="none" stroke="currentColor" stroke-width="1.7"/>
    <circle cx="8" cy="14.8" r="2.1" fill="none" stroke="currentColor" stroke-width="1.5"/>
    <path d="M13.2 14.8h4" stroke="currentColor" stroke-width="1.5" stroke-linecap="round"/>
    <path d="M13.2 17.2h2.6" stroke="currentColor" stroke-width="1.5" stroke-linecap="round"/>
    <path d="M7 9.5 15.5 4" fill="none" stroke="currentColor" stroke-width="1.7" stroke-linecap="round"/>
    <circle cx="16" cy="3.6" r="1.1" fill="currentColor"/>
  </symbol>

  <!-- ════════ Volume ════════ -->

  <symbol id="icon-volume-low" viewBox="0 0 24 24">
    <path d="M4 9.5v5h3.3L12 18.3V5.7L7.3 9.5z" fill="currentColor"/>
    <path d="M16 9.8a4 4 0 0 1 0 4.4" fill="none" stroke="currentColor" stroke-width="1.6" stroke-linecap="round"/>
  </symbol>

  <symbol id="icon-volume-high" viewBox="0 0 24 24">
    <path d="M4 9.5v5h3.3L12 18.3V5.7L7.3 9.5z" fill="currentColor"/>
    <path d="M15.5 9.3a4.6 4.6 0 0 1 0 5.4" fill="none" stroke="currentColor" stroke-width="1.6" stroke-linecap="round"/>
    <path d="M18.2 7.2a8.3 8.3 0 0 1 0 9.6" fill="none" stroke="currentColor" stroke-width="1.6" stroke-linecap="round"/>
  </symbol>

  <!-- ════════ Navigation / chrome ════════ -->

  <symbol id="icon-settings" viewBox="0 0 24 24">
    <circle cx="12" cy="12" r="3" fill="none" stroke="currentColor" stroke-width="1.7"/>
    <path d="M12 3.5v2.3M12 18.2v2.3M20.5 12h-2.3M5.8 12H3.5M17.7 6.3l-1.6 1.6M7.9 16.1l-1.6 1.6M17.7 17.7l-1.6-1.6M7.9 7.9 6.3 6.3"
          stroke="currentColor" stroke-width="1.7" stroke-linecap="round"/>
  </symbol>

  <symbol id="icon-close" viewBox="0 0 24 24">
    <path d="M6 6l12 12M18 6 6 18" stroke="currentColor" stroke-width="1.9" stroke-linecap="round"/>
  </symbol>

  <symbol id="icon-list" viewBox="0 0 24 24">
    <path d="M4 6.5h16M4 12h16M4 17.5h16" stroke="currentColor" stroke-width="1.8" stroke-linecap="round"/>
  </symbol>

  <symbol id="icon-track" viewBox="0 0 24 24">
    <path d="M9 17V5.5l11-2.2v11.7" fill="none" stroke="currentColor" stroke-width="1.6" stroke-linejoin="round"/>
    <circle cx="6.2" cy="17.5" r="2.8" fill="none" stroke="currentColor" stroke-width="1.6"/>
    <circle cx="17.2" cy="15" r="2.8" fill="none" stroke="currentColor" stroke-width="1.6"/>
  </symbol>

  <symbol id="icon-edit" viewBox="0 0 24 24">
    <path d="M4 20l1-4.2L15.6 5.2a1.6 1.6 0 0 1 2.3 0l1 1a1.6 1.6 0 0 1 0 2.3L8.3 19 4 20z"
          fill="none" stroke="currentColor" stroke-width="1.6" stroke-linejoin="round"/>
    <path d="M13.8 7 17 10.2" stroke="currentColor" stroke-width="1.6"/>
  </symbol>

  <symbol id="icon-trash" viewBox="0 0 24 24">
    <path d="M5 7h14M9.5 7V5.3a1 1 0 0 1 1-1h3a1 1 0 0 1 1 1V7M7.5 7l.8 12a1.4 1.4 0 0 0 1.4 1.3h4.6a1.4 1.4 0 0 0 1.4-1.3l.8-12"
          fill="none" stroke="currentColor" stroke-width="1.6" stroke-linecap="round" stroke-linejoin="round"/>
    <path d="M10.3 10.5v6M13.7 10.5v6" stroke="currentColor" stroke-width="1.4" stroke-linecap="round"/>
  </symbol>

  <symbol id="icon-refresh" viewBox="0 0 24 24">
    <path d="M4.5 12a7.5 7.5 0 0 1 12.6-5.5M19.5 12a7.5 7.5 0 0 1-12.6 5.5"
          fill="none" stroke="currentColor" stroke-width="1.7" stroke-linecap="round"/>
    <path d="M17.5 3.8v3.2h-3.2M6.5 20.2V17h3.2" fill="none" stroke="currentColor"
          stroke-width="1.7" stroke-linecap="round" stroke-linejoin="round"/>
  </symbol>

  <symbol id="icon-link" viewBox="0 0 24 24">
    <path d="M10 14a4.2 4.2 0 0 0 6 0l2.5-2.5a4.2 4.2 0 0 0-6-6L11 7"
          fill="none" stroke="currentColor" stroke-width="1.7" stroke-linecap="round"/>
    <path d="M14 10a4.2 4.2 0 0 0-6 0l-2.5 2.5a4.2 4.2 0 0 0 6 6L13 17"
          fill="none" stroke="currentColor" stroke-width="1.7" stroke-linecap="round"/>
  </symbol>

  <symbol id="icon-warning" viewBox="0 0 24 24">
    <path d="M12 3.8 21.3 19.5H2.7z" fill="none" stroke="currentColor" stroke-width="1.6" stroke-linejoin="round"/>
    <path d="M12 9.5v4.4" stroke="currentColor" stroke-width="1.6" stroke-linecap="round"/>
    <circle cx="12" cy="16.6" r="1" fill="currentColor"/>
  </symbol>

  <symbol id="icon-broadcast" viewBox="0 0 24 24">
    <circle cx="12" cy="12" r="2.3" fill="currentColor"/>
    <path d="M8.3 8.3a5.2 5.2 0 0 0 0 7.4M15.7 8.3a5.2 5.2 0 0 1 0 7.4"
          fill="none" stroke="currentColor" stroke-width="1.6" stroke-linecap="round"/>
    <path d="M5.1 5.1a9.6 9.6 0 0 0 0 13.8M18.9 5.1a9.6 9.6 0 0 1 0 13.8"
          fill="none" stroke="currentColor" stroke-width="1.6" stroke-linecap="round"/>
  </symbol>

  <symbol id="icon-music-note" viewBox="0 0 24 24">
    <circle cx="7.2" cy="17.5" r="2.6" fill="none" stroke="currentColor" stroke-width="1.6"/>
    <circle cx="16.8" cy="15.5" r="2.6" fill="none" stroke="currentColor" stroke-width="1.6"/>
    <path d="M9.8 17.5V5.7L19.4 4v11.5" fill="none" stroke="currentColor" stroke-width="1.6" stroke-linejoin="round"/>
  </symbol>

  <symbol id="icon-dot-filled" viewBox="0 0 24 24">
    <circle cx="12" cy="12" r="6" fill="currentColor"/>
  </symbol>

  <symbol id="icon-shop" viewBox="0 0 24 24">
    <path d="M4.5 9 5.7 4.5h12.6L19.5 9" fill="none" stroke="currentColor" stroke-width="1.6" stroke-linejoin="round"/>
    <path d="M4.5 9v10a1 1 0 0 0 1 1h13a1 1 0 0 0 1-1V9" fill="none" stroke="currentColor" stroke-width="1.6" stroke-linejoin="round"/>
    <path d="M9 9v1.8a3 3 0 0 0 6 0V9" fill="none" stroke="currentColor" stroke-width="1.6" stroke-linecap="round"/>
  </symbol>

  <symbol id="icon-popout" viewBox="0 0 24 24">
    <path d="M10 5H5.5A1.5 1.5 0 0 0 4 6.5v12A1.5 1.5 0 0 0 5.5 20h12a1.5 1.5 0 0 0 1.5-1.5V14"
          fill="none" stroke="currentColor" stroke-width="1.6" stroke-linecap="round" stroke-linejoin="round"/>
    <path d="M14 4h6v6" fill="none" stroke="currentColor" stroke-width="1.6" stroke-linecap="round" stroke-linejoin="round"/>
    <path d="M20 4 11 13" fill="none" stroke="currentColor" stroke-width="1.6" stroke-linecap="round"/>
  </symbol>

  <symbol id="icon-info" viewBox="0 0 24 24">
    <circle cx="12" cy="12" r="9" fill="none" stroke="currentColor" stroke-width="1.6"/>
    <path d="M12 11v5.5" stroke="currentColor" stroke-width="1.8" stroke-linecap="round"/>
    <circle cx="12" cy="7.7" r="1.05" fill="currentColor"/>
  </symbol>

</svg>
